<?xml version="1.0" standalone="no"?>
<!DOCTYPE svg PUBLIC "-//W3C//DTD SVG 20010904//EN"
 "http://www.w3.org/TR/2001/REC-SVG-20010904/DTD/svg10.dtd">
<svg version="1.0" xmlns="http://www.w3.org/2000/svg"
 width="256.000000pt" height="256.000000pt" viewBox="0 0 256.000000 256.000000"
 preserveAspectRatio="xMidYMid meet">
<metadata>
Created by potrace 1.11, written by Peter Selinger 2001-2013
</metadata>
<g transform="translate(0.000000,256.000000) scale(0.100000,-0.100000)"
fill="#000000" stroke="none">
<path d="M0 1280 l0 -1280 1280 0 1280 0 0 1280 0 1280 -1280 0 -1280 0 0
-1280z m2122 129 c29 -6 74 -17 99 -25 l46 -15 7 -106 c8 -126 -2 -149 -35
-74 -43 100 -141 155 -279 155 -222 0 -330 -132 -330 -404 0 -168 34 -275 108
-342 51 -46 101 -63 187 -62 82 1 149 29 159 66 3 13 6 76 6 141 0 135 -13
177 -61 197 -46 19 -34 30 34 30 117 0 107 21 107 -235 l0 -222 -72 -24 c-58
-19 -94 -24 -178 -24 -124 0 -171 17 -248 89 -88 83 -122 185 -122 371 0 127
15 214 50 289 44 93 130 166 229 192 58 16 223 17 293 3z m-568 -164 c-77
-157 -86 -417 -18 -579 14 -33 28 -68 31 -76 13 -32 -86 75 -111 119 -73 135
-75 318 -3 454 26 50 124 164 132 155 2 -2 -12 -35 -31 -73z m836 -281 c0 -3
-13 -17 -30 -30 -41 -35 -50 -78 -50 -236 l0 -136 -31 -11 c-18 -6 -36 -11
-40 -11 -5 0 -9 94 -9 209 0 209 0 210 23 214 34 7 137 8 137 1z"/>
</g>
</svg>
