<?xml version="1.0" standalone="no"?>
<!DOCTYPE svg PUBLIC "-//W3C//DTD SVG 20010904//EN"
 "http://www.w3.org/TR/2001/REC-SVG-20010904/DTD/svg10.dtd">
<svg version="1.0" xmlns="http://www.w3.org/2000/svg"
 width="256.000000pt" height="256.000000pt" viewBox="0 0 256.000000 256.000000"
 preserveAspectRatio="xMidYMid meet">
<metadata>
Created by potrace 1.11, written by Peter Selinger 2001-2013
</metadata>
<g transform="translate(0.000000,256.000000) scale(0.100000,-0.100000)"
fill="#000000" stroke="none">
<path d="M0 1280 l0 -1280 1280 0 1280 0 0 1280 0 1280 -1280 0 -1280 0 0
-1280z m2129 420 c89 -25 139 -50 209 -102 l53 -39 -25 -42 c-41 -69 -76 -107
-97 -107 -10 0 -54 18 -97 39 -102 52 -149 64 -257 64 -112 1 -182 -19 -257
-72 -104 -75 -158 -187 -166 -346 -5 -122 8 -192 54 -284 55 -111 139 -176
266 -206 107 -25 217 -16 315 26 l43 18 0 116 0 115 -94 0 c-122 0 -128 5
-124 109 l3 76 215 0 215 0 3 -267 2 -266 -57 -35 c-131 -80 -319 -118 -485
-99 -251 28 -443 151 -537 344 -57 116 -74 191 -73 323 2 346 196 585 527 651
96 19 268 11 364 -16z"/>
</g>
</svg>
