<?xml version="1.0" encoding="utf-8"?>
<!-- Generator: Adobe Illustrator 23.0.3, SVG Export Plug-In . SVG Version: 6.00 Build 0)  -->
<svg version="1.1"
	 id="logosvg.com" xmlns:cc="http://creativecommons.org/ns#" xmlns:dc="http://purl.org/dc/elements/1.1/" xmlns:rdf="http://www.w3.org/1999/02/22-rdf-syntax-ns#" xmlns:svg="http://www.w3.org/2000/svg"
	 xmlns="http://www.w3.org/2000/svg" xmlns:xlink="http://www.w3.org/1999/xlink" x="0px" y="0px" viewBox="0 0 309.9 359.6"
	 style="enable-background:new 0 0 309.9 359.6;" xml:space="preserve">
<style type="text/css">
	.st0{fill:#2F2D2E;}
</style>
<path id="logosvg.com_1_" class="st0" d="M132.8,117.9h-8.5V67.8h8.5c5.2,0,7.7,2.5,7.7,8V110C140.5,115.4,138,117.9,132.8,117.9z
	 M109.4,243.5h0.6h0.6h0.6h0.6h0.6h0.6h0.5h0.6h0.6h0.6h0.6h0.6h0.6h0.6h0.6l-0.2-0.5l-0.2-0.5l-0.2-0.6l-0.2-0.5l-0.2-0.5l-0.2-0.5
	l-0.2-0.6l-0.2-0.5l-0.2-0.5l-0.2-0.5l-0.2-0.5l-0.2-0.6l-0.2-0.5l-0.2-0.5l-0.2-0.5l-0.2-0.5l-0.2-0.6l-0.2-0.5l-0.2-0.5l-0.2-0.5
	l-0.2-0.6l-0.2-0.5l-0.2-0.5l-0.2,0.5l-0.2,0.5l-0.2,0.6l-0.2,0.5l-0.2,0.5l-0.2,0.5l-0.2,0.6l-0.2,0.5l-0.2,0.5l-0.2,0.5l-0.2,0.5
	l-0.2,0.6l-0.2,0.5l-0.2,0.5l-0.2,0.5l-0.2,0.5l-0.2,0.6l-0.2,0.5l-0.2,0.5l-0.2,0.5l-0.2,0.6l-0.2,0.5l-0.2,0.5h0.6H109.4z
	 M307.9,30.1v245c0,2.3-0.1,4.4-0.3,6.4c-0.5,4.4-0.5,8.7-4.7,13.6c-0.4,0.5-4.6,3.6-4.6,3.6c-2.3,1.1-3.8,1.9-6.4,3l-123.3,51.7
	c-6.4,2.9-9.1,4.1-13.7,4v0c0,0,0,0,0,0c0,0,0,0,0,0v0c-4.6,0.1-7.3-1.1-13.7-4L17.9,301.7c-2.6-1-4.1-1.8-6.4-3
	c0,0-4.2-3.1-4.6-3.6c-4.1-4.9-4.2-9.2-4.7-13.6c-0.2-2-0.3-4.1-0.3-6.4v-245C2,9.8,9.5,2.3,29.8,2.3h250.4
	C300.4,2.3,307.9,9.8,307.9,30.1z M170.6,185.6h20.7V49.5h-20.7V185.6z M161.3,234l-0.3-0.5l-0.3-0.5l-0.3-0.4l-0.3-0.5l-0.3-0.5
	l-0.3-0.5l-0.3-0.5l-0.3-0.4l-0.3-0.5l-0.3-0.5l-0.3-0.5l-0.3-0.5l-0.3-0.5l-0.3-0.5l-0.3-0.5l-0.3-0.5l-0.3-0.5l-0.3-0.5l-0.3-0.5
	l-0.3-0.5l-0.3-0.5l-0.3-0.5l-0.3-0.5l-0.3-0.5l-0.3-0.5l-0.3-0.4l-0.3-0.5l-0.3-0.5l-0.3-0.5l-0.3-0.4l-0.3-0.5l-0.3-0.5h-0.6h-0.6
	h-0.5h-0.6h-0.6h-0.6h-0.5h-0.6h-0.6h-0.6h-0.5h-0.6h-0.6h-0.6h-0.5h-0.6h-0.6H142h-0.5h-0.6h-0.6v0.6v0.6v0.6v0.6v0.6v0.6v0.6v0.6
	v0.6v0.6v0.6v0.6v0.6v0.6v0.6v0.6v0.6v0.6v0.5v0.6v0.6v0.6v0.6v0.6v0.6v0.6v0.6v0.6v0.6v0.6v0.6v0.6v0.6v0.6v0.6v0.6v0.6v0.6v0.6
	v0.6v0.6v0.6v0.6v0.6v0.6v0.6v0.6v0.6v0.6v0.6v0.6v0.6v0.6v0.6v0.5v0.6v0.6v0.6v0.6v0.6v0.6v0.6v0.6v0.6v0.6v0.6v0.6v0.6v0.6v0.6
	v0.6v0.6v0.6h0.6h0.6h0.6h0.6h0.6h0.6h0.6h0.6h0.6h0.6h0.6h0.6h0.6h0.6h0.6h0.6h0.6h0.6h0.6v-0.6v-0.6v-0.6v-0.6v-0.6v-0.6v-0.6
	v-0.6v-0.6v-0.6v-0.5v-0.6v-0.6V252v-0.6v-0.6v-0.6v-0.6v-0.6v-0.6v-0.6v-0.6V247v-0.6v-0.6v-0.6v-0.6v-0.6v-0.6V243v-0.6v-0.6v-0.5
	v-0.6v-0.6v-0.6v-0.6v-0.6V238v-0.6v-0.6v-0.6v-0.6l0.3,0.5l0.3,0.5l0.3,0.5l0.3,0.5l0.3,0.5l0.3,0.5l0.3,0.5l0.3,0.5l0.3,0.5
	l0.3,0.5l0.3,0.5l0.3,0.5l0.3,0.5l0.3,0.5l0.3,0.5l0.3,0.5l0.3,0.5l0.3,0.5l0.3,0.5l0.3,0.5l0.3,0.5l0.3,0.5l0.3,0.5l0.3,0.5
	l0.3,0.5l0.3,0.5l0.3,0.5l0.3,0.5l0.3,0.5l0.3,0.5l0.3,0.5l0.3,0.5l0.3,0.5l0.3,0.5h0.2l0.3-0.5l0.3-0.5l0.3-0.5l0.3-0.5l0.3-0.5
	l0.3-0.5l0.3-0.5l0.3-0.5l0.3-0.5l0.3-0.5l0.3-0.5l0.3-0.5l0.3-0.5l0.3-0.5l0.3-0.5l0.3-0.5l0.3-0.5l0.3-0.5l0.3-0.5l0.3-0.5
	l0.3-0.5l0.3-0.5l0.3-0.5l0.3-0.5l0.3-0.5l0.3-0.5l0.3-0.5l0.3-0.5l0.3-0.5l0.3-0.5l0.3-0.5l0.3-0.5l0.3-0.5l0.3-0.5l0.3-0.5v0.6
	v0.6v0.6v0.6v0.6v0.6v0.6v0.6v0.6v0.6v0.6v0.6v0.6v0.6v0.6v0.6v0.6v0.6v0.6v0.6v0.6v0.6v0.6v0.6v0.6v0.6v0.6v0.6v0.6v0.6v0.6v0.6
	v0.6v0.6v0.6v0.6v0.6v0.6v0.6v0.6v0.6v0.6v0.6h0.6h0.6h0.6h0.6h0.6h0.6h0.6h0.6h0.6h0.6h0.6h0.6h0.6h0.6h0.6h0.6h0.6h0.6h0.6v-0.6
	v-0.6v-0.6v-0.6v-0.6v-0.6V256v-0.6v-0.6v-0.6v-0.6v-0.6v-0.6V252v-0.6v-0.6v-0.6v-0.6v-0.5v-0.6v-0.6v-0.6V247v-0.6v-0.6v-0.6v-0.6
	v-0.6v-0.6V243v-0.6v-0.6v-0.6v-0.6v-0.6v-0.6v-0.6v-0.6v-0.6v-0.6v-0.6v-0.6v-0.6v-0.6v-0.6V234v-0.6v-0.6v-0.6v-0.6v-0.6v-0.6V230
	v-0.6v-0.5v-0.6v-0.6v-0.6v-0.6v-0.6v-0.6V225v-0.6v-0.6v-0.6v-0.6v-0.6v-0.6V221v-0.6v-0.6v-0.6v-0.6h-0.6h-0.6h-0.5h-0.6h-0.6
	h-0.6h-0.5H179h-0.6h-0.6h-0.5h-0.6h-0.6h-0.6h-0.5h-0.6H174h-0.6H173h-0.6h-0.6l-0.3,0.5l-0.3,0.5l-0.3,0.4l-0.3,0.5l-0.3,0.5
	l-0.3,0.5l-0.3,0.4l-0.3,0.5l-0.3,0.5l-0.3,0.5l-0.3,0.5l-0.3,0.5L168,225l-0.3,0.5l-0.3,0.5l-0.3,0.5l-0.3,0.5l-0.3,0.5l-0.3,0.5
	l-0.3,0.5l-0.3,0.5l-0.3,0.5l-0.3,0.5l-0.3,0.5l-0.3,0.4l-0.3,0.5l-0.3,0.5l-0.3,0.5l-0.3,0.5L163,233l-0.3,0.5l-0.3,0.5l-0.3,0.5
	l-0.3,0.5l-0.3-0.5L161.3,234z M103.6,185.6h20.7v-49.4h11.8c16.8,0,25.2-8.4,25.2-25.3V74.8c0-16.9-8.3-25.3-25.2-25.3h-32.5V185.6
	z M47.1,185.6h46.4v-18.9H67.8v-41h24.4v-18.9H67.8V68.4h25.4V49.5H47.1V185.6z M86.3,236h-0.6h-0.6h-0.6h-0.6h-0.6h-0.6h-0.6h-0.6
	h-0.6h-0.6h-0.6h-0.6H79h-0.6h-0.6h-0.6h-0.6h-0.6h-0.6h-0.6h-0.6h-0.6h-0.6h-0.6h-0.6h-0.6h-0.6h-0.6H70h-0.6h-0.6h-0.6h-0.6v0.6
	v0.5v0.6v0.6v0.6v0.5v0.6v0.6v0.6v0.5v0.6v0.6v0.6v0.5v0.6h0.6h0.5h0.6h0.6h0.6H71h0.6h0.6h0.6h0.5h0.6h0.6h0.6h0.5H76v0.6v0.6v0.6
	v0.6v0.6v0.6v0.6v0.6v0.6l-0.4,0.3l-0.4,0.2l-0.5,0.2l-0.5,0.2l-0.5,0.2l-0.5,0.1l-0.6,0.2l-0.6,0.1l-0.6,0.1l-0.6,0.1l-0.6,0.1
	l-0.6,0.1H69h-0.6l-0.6-0.1l-0.6-0.1l-0.6-0.1l-0.6-0.1l-0.6-0.2l-0.6-0.2l-0.5-0.2l-0.5-0.2l-0.5-0.2l-0.5-0.3l-0.4-0.3l-0.4-0.3
	l-0.5-0.3l-0.4-0.3l-0.3-0.4l-0.4-0.4l-0.3-0.4l-0.3-0.5l-0.3-0.5l-0.3-0.5l-0.3-0.5l-0.2-0.5l-0.2-0.6l-0.2-0.5l-0.2-0.5l-0.1-0.5
	l-0.1-0.5l-0.1-0.5l-0.1-0.6l-0.1-0.5l-0.1-0.6v-0.6v-0.1v-0.6l0.1-0.6l0.1-0.6l0.1-0.6l0.1-0.5l0.1-0.6l0.2-0.6l0.2-0.5l0.2-0.5
	l0.2-0.5l0.3-0.5l0.3-0.5l0.3-0.5L60,232l0.3-0.5l0.4-0.4l0.3-0.4l0.4-0.3l0.4-0.3l0.4-0.3l0.5-0.3l0.4-0.3l0.5-0.3l0.5-0.2l0.5-0.2
	l0.5-0.2l0.5-0.2l0.5-0.1l0.6-0.1l0.5-0.1l0.6-0.1h0.6H69l0.6,0.1l0.6,0.1l0.6,0.1l0.6,0.1l0.6,0.1l0.5,0.1l0.5,0.2l0.5,0.2l0.5,0.2
	l0.4,0.2l0.5,0.2l0.5,0.3l0.4,0.3l0.5,0.3l0.4,0.3l0.4,0.3l0.5,0.3l0.4,0.4l0.5,0.3l0.3-0.5l0.4-0.4l0.3-0.5l0.4-0.5l0.3-0.5
	l0.3-0.4l0.4-0.5l0.3-0.5l0.4-0.5l0.3-0.4l0.3-0.5l0.4-0.5l0.3-0.4l0.3-0.5l0.4-0.5l0.3-0.5l0.4-0.4l0.3-0.5l-0.4-0.3l-0.5-0.4
	l-0.4-0.3l-0.5-0.3l-0.4-0.3l-0.4-0.3l-0.5-0.3l-0.4-0.3l-0.5-0.3l-0.5-0.3l-0.5-0.2l-0.5-0.3l-0.5-0.2l-0.5-0.2l-0.5-0.2l-0.5-0.2
	l-0.4-0.2l-0.5-0.1l-0.5-0.2l-0.5-0.1l-0.5-0.1l-0.5-0.1l-0.6-0.1l-0.6-0.1l-0.5-0.1l-0.6-0.1l-0.6-0.1h-0.6l-0.6-0.1l-0.6-0.1H69
	h-0.6h-0.6h-0.6l-0.6,0.1l-0.6,0.1l-0.6,0.1l-0.6,0.1l-0.6,0.1l-0.6,0.1l-0.6,0.1l-0.5,0.2l-0.6,0.1l-0.5,0.2l-0.5,0.1l-0.5,0.2
	l-0.6,0.2l-0.4,0.2l-0.6,0.3l-0.5,0.2l-0.5,0.2l-0.5,0.3l-0.5,0.3l-0.5,0.3l-0.4,0.3l-0.5,0.3l-0.4,0.3l-0.5,0.3l-0.4,0.3l-0.4,0.3
	l-0.5,0.4l-0.4,0.3l-0.4,0.4l-0.4,0.4L52,225l-0.4,0.4l-0.3,0.4l-0.3,0.5l-0.3,0.5l-0.3,0.5l-0.3,0.5l-0.3,0.5l-0.3,0.5l-0.3,0.5
	l-0.3,0.5l-0.2,0.5l-0.2,0.5l-0.2,0.5l-0.2,0.5l-0.2,0.6l-0.2,0.5l-0.2,0.6l-0.2,0.5l-0.1,0.6l-0.2,0.6l-0.1,0.5l-0.1,0.6l-0.1,0.6
	l-0.1,0.6l-0.1,0.6v0.6l-0.1,0.6v0.6v0.1v0.6v0.6l0.1,0.6l0.1,0.6l0.1,0.6l0.1,0.5l0.1,0.6l0.1,0.5l0.1,0.6l0.2,0.5l0.1,0.6l0.2,0.5
	l0.1,0.5l0.2,0.5l0.2,0.5l0.2,0.5l0.2,0.5l0.2,0.5l0.2,0.5l0.3,0.5l0.3,0.5l0.3,0.5l0.3,0.5l0.3,0.5l0.3,0.5l0.3,0.4l0.3,0.5
	l0.3,0.4L52,254l0.4,0.4l0.4,0.3l0.4,0.4l0.4,0.3l0.4,0.3l0.4,0.3l0.4,0.3l0.5,0.3l0.4,0.3l0.5,0.3l0.5,0.3l0.4,0.3l0.5,0.3l0.5,0.2
	l0.5,0.2l0.5,0.2l0.6,0.2l0.5,0.2l0.5,0.2l0.5,0.2l0.6,0.1l0.5,0.2l0.6,0.1l0.5,0.1l0.6,0.1l0.6,0.1l0.6,0.1l0.6,0.1l0.6,0.1
	l0.6,0.1l0.6,0.1H68h0.6h0.6h0.6l0.6-0.1l0.6-0.1l0.6-0.1l0.6-0.1l0.6-0.1l0.6-0.1l0.6-0.1l0.6-0.1L75,260l0.6-0.1l0.5-0.2l0.6-0.2
	l0.5-0.2l0.5-0.2l0.5-0.2l0.5-0.2l0.6-0.2l0.5-0.2l0.6-0.2l0.5-0.3l0.5-0.2l0.5-0.3l0.5-0.3l0.5-0.3l0.4-0.3l0.5-0.3l0.4-0.3
	l0.4-0.3l0.5-0.3l0.4-0.3l0.5-0.3l0.4-0.3v-0.6v-0.6v-0.6v-0.5v-0.6V251v-0.6v-0.6v-0.6v-0.5v-0.6v-0.6v-0.6v-0.6V246v-0.6v-0.5
	v-0.6v-0.6v-0.6v-0.6v-0.6v-0.6V241v-0.6v-0.6v-0.6v-0.6v-0.6v-0.5v-0.6v-0.6V236z M95.6,259.9h0.6h0.6h0.6h0.6h0.6H99h0.6h0.6h0.6
	h0.6h0.6l0.2-0.5l0.2-0.5l0.2-0.5l0.2-0.6l0.2-0.5l0.2-0.5l0.2-0.5l0.2-0.5l0.2-0.5l0.2-0.5l0.2-0.5l0.2-0.6l0.2-0.5l0.2-0.5
	l0.2-0.5h0.6h0.6h0.6h0.6h0.5h0.6h0.6h0.6h0.6h0.6h0.6h0.6h0.6h0.6h0.5h0.6h0.6h0.6h0.6h0.6h0.6h0.6h0.6h0.6h0.5h0.6h0.6h0.6h0.6
	l0.2,0.5l0.2,0.5l0.2,0.5l0.2,0.6l0.2,0.5l0.2,0.5l0.2,0.5l0.2,0.5l0.2,0.5l0.2,0.5l0.2,0.5l0.2,0.6l0.2,0.5l0.2,0.5l0.2,0.5h0.6
	h0.6h0.5h0.6h0.6h0.6h0.6h0.5h0.6h0.6h0.6h0.6h0.6h0.5h0.6h0.6h0.6h0.6h0.5h0.6h0.6l-0.2-0.5l-0.2-0.5l-0.2-0.5l-0.2-0.6l-0.2-0.5
	l-0.2-0.5l-0.2-0.5l-0.2-0.5l-0.2-0.5l-0.2-0.6l-0.2-0.5l-0.2-0.5l-0.2-0.5l-0.2-0.5l-0.2-0.5l-0.2-0.6l-0.2-0.5l-0.2-0.5l-0.2-0.5
	l-0.2-0.5l-0.2-0.5l-0.2-0.6l-0.2-0.5l-0.2-0.5l-0.2-0.5l-0.2-0.5l-0.2-0.5l-0.2-0.6l-0.2-0.5l-0.2-0.5l-0.2-0.5l-0.2-0.5l-0.2-0.5
	l-0.2-0.6l-0.2-0.5l-0.2-0.5l-0.2-0.5l-0.2-0.5l-0.2-0.5l-0.2-0.6l-0.2-0.5l-0.2-0.5l-0.2-0.5l-0.2-0.5l-0.2-0.5l-0.2-0.5l-0.2-0.6
	l-0.2-0.5l-0.2-0.5l-0.2-0.5l-0.2-0.5l-0.2-0.5l-0.2-0.6l-0.2-0.5l-0.2-0.5l-0.2-0.5l-0.2-0.5l-0.2-0.5l-0.2-0.6l-0.2-0.5l-0.2-0.5
	l-0.2-0.5l-0.2-0.5l-0.2-0.5l-0.2-0.6l-0.2-0.5l-0.2-0.5l-0.2-0.5l-0.2-0.5l-0.2-0.5l-0.2-0.6l-0.2-0.5l-0.2-0.5l-0.2-0.5l-0.2-0.5
	l-0.2-0.5L119,220l-0.2-0.5l-0.2-0.5l-0.2-0.5h-0.6h-0.5h-0.6h-0.6h-0.6h-0.5h-0.6h-0.6h-0.6h-0.5h-0.6h-0.6h-0.6h-0.5h-0.6h-0.6
	H109h-0.5h-0.6l-0.2,0.5l-0.2,0.5l-0.2,0.5l-0.2,0.6l-0.2,0.5l-0.2,0.5l-0.2,0.5l-0.2,0.5l-0.2,0.5l-0.2,0.6l-0.2,0.5l-0.2,0.5
	l-0.2,0.5l-0.2,0.5l-0.2,0.5l-0.2,0.6l-0.2,0.5l-0.2,0.5l-0.2,0.5l-0.2,0.5l-0.2,0.5l-0.2,0.6l-0.2,0.5l-0.2,0.5l-0.2,0.5l-0.2,0.5
	l-0.2,0.5l-0.2,0.6l-0.2,0.5l-0.2,0.5l-0.2,0.5l-0.2,0.5l-0.2,0.5l-0.2,0.6l-0.2,0.5l-0.2,0.5l-0.2,0.5l-0.2,0.5l-0.2,0.5l-0.2,0.5
	l-0.2,0.6l-0.2,0.5l-0.2,0.5l-0.2,0.5l-0.2,0.5l-0.2,0.5l-0.2,0.6l-0.2,0.5l-0.2,0.5l-0.2,0.5l-0.2,0.5l-0.2,0.5l-0.2,0.6l-0.2,0.5
	l-0.2,0.5l-0.2,0.5l-0.2,0.5l-0.2,0.5l-0.2,0.6l-0.2,0.5l-0.2,0.5l-0.2,0.5l-0.2,0.5l-0.2,0.5l-0.2,0.6l-0.2,0.5l-0.2,0.5l-0.2,0.5
	l-0.2,0.5l-0.2,0.5l-0.2,0.6l-0.2,0.5l-0.2,0.5l-0.2,0.5l-0.2,0.5l-0.2,0.5l-0.2,0.6l-0.2,0.5l-0.2,0.5l-0.2,0.5H91h0.6h0.6h0.6h0.6
	h0.6h0.6H95H95.6z M214.5,308.7H96l58,20L214.5,308.7z M224.5,250.6h-0.6h-0.6h-0.6h-0.6h-0.6h-0.6h-0.6H220h-0.6h-0.6h-0.6h-0.6
	h-0.6h-0.6H216h-0.6h-0.6h-0.6h-0.6h-0.6h-0.6h-0.6h-0.6h-0.6h-0.6h-0.6h-0.6h-0.6h-0.6h-0.6h-0.6h-0.6h-0.6h-0.6h-0.6h-0.6h-0.6
	H203h-0.6V250v-0.6v-0.6v-0.6v-0.6v-0.6v-0.6v-0.6v-0.6v-0.6v-0.6v-0.6h0.6h0.6h0.6h0.6h0.6h0.6h0.6h0.6h0.5h0.6h0.6h0.6h0.6h0.6
	h0.6h0.6h0.6h0.6h0.6h0.6h0.6h0.6h0.6h0.6h0.6h0.6h0.5h0.6h0.6h0.6h0.6h0.6h0.6h0.6h0.6V243v-0.5v-0.6v-0.6v-0.5v-0.6v-0.6v-0.6
	v-0.5v-0.6v-0.6V237v-0.6v-0.6v-0.5v-0.6h-0.6h-0.6h-0.6h-0.6h-0.6h-0.6h-0.6h-0.6H217h-0.6h-0.6h-0.6h-0.6h-0.6h-0.6h-0.6h-0.6
	h-0.6h-0.6h-0.6h-0.6h-0.6h-0.6h-0.6H208h-0.6h-0.5h-0.6h-0.6h-0.6h-0.6h-0.6h-0.6H203h-0.6v-0.6v-0.6v-0.6v-0.6V232v-0.6v-0.5v-0.6
	v-0.6v-0.6v-0.6v-0.6h0.6h0.6h0.6h0.6h0.6h0.6h0.5h0.6h0.6h0.6h0.6h0.6h0.6h0.6h0.6h0.6h0.6h0.6h0.6h0.5h0.6h0.6h0.6h0.6h0.6h0.6
	h0.6h0.6h0.6h0.6h0.6h0.6h0.5h0.6h0.6h0.6h0.6h0.6h0.6v-0.6V227v-0.6v-0.6v-0.6v-0.5v-0.6v-0.6v-0.5v-0.6v-0.6v-0.5V221v-0.6v-0.6
	v-0.5v-0.6h-0.6h-0.6h-0.6h-0.6h-0.6h-0.6h-0.6h-0.6h-0.6h-0.6H218h-0.6h-0.6h-0.6h-0.5h-0.6h-0.6h-0.6h-0.6H213h-0.6h-0.6h-0.6
	h-0.6h-0.6h-0.6h-0.6h-0.6h-0.6h-0.6h-0.6h-0.6h-0.6h-0.6h-0.6H204h-0.6h-0.6h-0.6h-0.6h-0.6h-0.6h-0.6h-0.5H199h-0.6h-0.6h-0.6
	h-0.6h-0.6h-0.6h-0.6h-0.6h-0.6h-0.6h-0.6h-0.6h-0.6v0.6v0.6v0.6v0.6v0.6v0.6v0.6v0.6v0.6v0.6v0.6v0.6v0.6v0.6v0.6v0.6v0.6v0.6v0.5
	v0.6v0.6v0.6v0.6v0.6v0.6v0.6v0.6v0.6v0.6v0.6v0.6v0.6v0.6v0.6v0.6v0.6v0.6v0.6v0.6v0.6v0.6v0.6v0.6v0.6v0.6v0.6v0.6v0.6v0.6v0.6
	v0.6v0.6v0.6v0.6v0.5v0.6v0.6v0.6v0.6v0.6v0.6v0.6v0.6v0.6v0.6v0.6v0.6v0.6v0.6v0.6v0.6v0.6v0.6h0.6h0.6h0.6h0.6h0.6h0.6h0.6h0.6
	h0.6h0.6h0.6h0.6h0.6h0.6h0.6h0.6h0.6h0.6h0.6h0.6h0.6h0.6h0.6h0.6h0.6h0.6h0.6h0.6h0.6h0.6h0.6h0.6h0.6h0.6h0.6h0.6h0.6h0.6h0.6
	h0.6h0.6h0.6h0.6h0.6h0.6h0.6h0.6h0.6h0.6h0.6h0.6h0.6h0.6h0.6h0.6h0.6h0.6h0.6v-0.6v-0.5v-0.6v-0.6v-0.6v-0.5v-0.6v-0.6V255v-0.6
	v-0.6v-0.5v-0.6v-0.6v-0.6v-0.5V250.6z M227.4,186.8h10.3c16.8,0,25.2-8.4,25.2-25.3v-31.7h-20.3v30.7c0,5.4-2.5,8-7.7,8h-3.9
	c-5.4,0-7.9-2.5-7.9-8V74.6c0-5.4,2.5-8,7.9-8h3.5c5.2,0,7.7,2.5,7.7,8v26.6h20.3V73.4c0-16.9-8.1-25.1-25-25.1h-10.1
	c-16.8,0-25.2,8.4-25.2,25.3v87.9C202.2,178.4,210.5,186.8,227.4,186.8z M263.4,246.6l-0.1-0.6l-0.1-0.6l-0.1-0.6l-0.1-0.6l-0.1-0.5
	l-0.2-0.5l-0.2-0.5l-0.2-0.5l-0.3-0.5l-0.3-0.5l-0.3-0.5l-0.3-0.5l-0.4-0.4l-0.4-0.5l-0.5-0.4l-0.4-0.4l-0.4-0.3l-0.5-0.3l-0.4-0.3
	l-0.5-0.3l-0.5-0.3l-0.6-0.3l-0.6-0.2l-0.6-0.3l-0.6-0.2l-0.5-0.2l-0.5-0.2l-0.6-0.2l-0.5-0.2l-0.6-0.2l-0.6-0.2l-0.6-0.1l-0.6-0.2
	l-0.6-0.2l-0.6-0.1l-0.6-0.2l-0.6-0.2l-0.6-0.2l-0.6-0.1l-0.5-0.2l-0.5-0.1l-0.4-0.2l-0.4-0.1l-0.7-0.2l-0.6-0.2l-0.6-0.2l-0.4-0.3
	l-0.5-0.3l-0.4-0.4l-0.2-0.3l-0.3-0.6l-0.1-0.7v-0.1l0.1-0.6l0.2-0.5l0.3-0.5l0.5-0.5l0.4-0.2l0.4-0.2l0.5-0.1l0.6-0.1l0.6-0.1h0.7
	h0.6l0.5,0.1l0.6,0.1l0.6,0.1l0.6,0.1l0.6,0.1l0.6,0.1l0.6,0.2l0.6,0.2l0.6,0.2l0.5,0.2l0.5,0.2l0.4,0.2l0.5,0.2l0.4,0.2l0.5,0.2
	l0.5,0.3l0.5,0.2l0.5,0.3l0.4,0.3l0.5,0.3l0.5,0.3l0.3-0.5l0.3-0.5l0.3-0.5l0.3-0.5l0.3-0.5l0.3-0.5l0.3-0.5l0.3-0.5l0.3-0.5
	l0.3-0.5l0.3-0.5l0.3-0.5l0.3-0.5l0.3-0.5l0.3-0.5l0.3-0.5l0.3-0.5l-0.4-0.3l-0.4-0.3l-0.5-0.3l-0.4-0.3l-0.5-0.3l-0.4-0.3l-0.5-0.3
	l-0.5-0.3l-0.4-0.2l-0.5-0.3l-0.6-0.2l-0.5-0.2l-0.5-0.2l-0.5-0.2l-0.6-0.2l-0.5-0.1l-0.5-0.2l-0.6-0.2l-0.5-0.1l-0.6-0.1l-0.6-0.1
	l-0.5-0.1l-0.6-0.1l-0.6-0.1l-0.6-0.1l-0.6-0.1h-0.6l-0.6-0.1l-0.6-0.1h-0.6h-0.6h-0.6h-0.6l-0.6,0.1l-0.6,0.1l-0.6,0.1l-0.6,0.1
	l-0.5,0.1l-0.6,0.1l-0.5,0.1l-0.5,0.1l-0.4,0.1l-0.5,0.2l-0.6,0.2l-0.6,0.2l-0.5,0.2l-0.5,0.3l-0.5,0.2l-0.5,0.3l-0.4,0.3l-0.4,0.3
	l-0.5,0.3l-0.4,0.3l-0.5,0.4l-0.4,0.5l-0.4,0.4l-0.4,0.5l-0.3,0.5l-0.3,0.5l-0.3,0.5l-0.3,0.5l-0.2,0.5l-0.2,0.5l-0.2,0.5l-0.1,0.5
	l-0.2,0.5l-0.1,0.5l-0.1,0.5l-0.1,0.6l-0.1,0.5l-0.1,0.6v0.6v0.1v0.6l0.1,0.6l0.1,0.6l0.1,0.6l0.1,0.5l0.1,0.6l0.2,0.5l0.2,0.5
	l0.2,0.5l0.2,0.4l0.3,0.5l0.3,0.5l0.3,0.4l0.3,0.4l0.3,0.4l0.4,0.4l0.4,0.4l0.4,0.3l0.5,0.3l0.4,0.3l0.5,0.3l0.5,0.3l0.6,0.3
	l0.5,0.3l0.6,0.2l0.6,0.2l0.6,0.2l0.6,0.2l0.5,0.2l0.5,0.2l0.5,0.2l0.6,0.1l0.5,0.2l0.6,0.2l0.6,0.1l0.6,0.2l0.6,0.1l0.6,0.2
	l0.6,0.1l0.6,0.2l0.6,0.1l0.6,0.2l0.5,0.1l0.5,0.2l0.4,0.1l0.4,0.1l0.7,0.3l0.6,0.2l0.5,0.2l0.4,0.2l0.5,0.3l0.4,0.3l0.3,0.4
	l0.2,0.6l0.1,0.7v0.1l-0.1,0.6l-0.2,0.5l-0.2,0.5l-0.3,0.4l-0.5,0.3l-0.4,0.2l-0.5,0.2l-0.5,0.1l-0.5,0.1l-0.6,0.1l-0.6,0.1h-0.7
	h-0.6l-0.6-0.1h-0.6l-0.6-0.1l-0.6-0.1l-0.6-0.1l-0.6-0.1l-0.6-0.1l-0.5-0.2l-0.6-0.2l-0.6-0.2l-0.5-0.2l-0.5-0.2l-0.5-0.2l-0.5-0.2
	l-0.5-0.2l-0.4-0.3l-0.5-0.2l-0.4-0.3l-0.5-0.3l-0.5-0.3l-0.5-0.3l-0.5-0.3l-0.5-0.3l-0.4-0.3l-0.3,0.5l-0.4,0.4l-0.3,0.5l-0.4,0.5
	l-0.3,0.4l-0.3,0.5l-0.4,0.5l-0.3,0.4l-0.4,0.5l-0.3,0.4l-0.4,0.5l-0.3,0.5l-0.3,0.4l-0.4,0.5l-0.3,0.5l-0.4,0.4l-0.3,0.5l0.4,0.4
	l0.4,0.3l0.4,0.3l0.5,0.3l0.4,0.3l0.4,0.3l0.5,0.3l0.4,0.3l0.5,0.3l0.4,0.3l0.5,0.3l0.5,0.2l0.5,0.3l0.5,0.2l0.5,0.2l0.6,0.2
	l0.5,0.2l0.6,0.2l0.5,0.2l0.6,0.2l0.6,0.2l0.5,0.1l0.6,0.2l0.6,0.1l0.6,0.1l0.6,0.1l0.6,0.1l0.6,0.1l0.6,0.1l0.6,0.1l0.6,0.1
	l0.6,0.1h0.6l0.6,0.1h0.6h0.6h0.6h0.6l0.6-0.1l0.6-0.1l0.6-0.1l0.5-0.1l0.6-0.1l0.6-0.1l0.5-0.1l0.5-0.1l0.6-0.1l0.5-0.2l0.6-0.2
	l0.6-0.2l0.6-0.2l0.6-0.2l0.5-0.3l0.5-0.2l0.5-0.3l0.4-0.3l0.4-0.3l0.5-0.3l0.4-0.3l0.5-0.4l0.3-0.3l0.4-0.4l0.3-0.4l0.3-0.5
	l0.3-0.5l0.3-0.5l0.3-0.5l0.2-0.5l0.2-0.5l0.2-0.5l0.2-0.6l0.1-0.5l0.2-0.6l0.1-0.6l0.1-0.6l0.1-0.6l0.1-0.6v-0.6v-0.1V246.6z"/>
</svg>
